<svg xmlns="http://www.w3.org/2000/svg" width="335.974" height="72.006" viewBox="8.205 26.659 335.974 72.006"><path fill="#FFF" d="M78.414 62.575c0 18.975-15.386 34.356-34.357 34.356-18.979 0-34.361-15.382-34.361-34.356 0-18.978 15.384-34.354 34.36-34.354 18.973-.001 34.358 15.376 34.358 34.354z"/><radialGradient id="a" cx="688.424" cy="890.043" r="40.011" gradientTransform="matrix(.8999 0 0 -.8999 -575.3 863.612)" gradientUnits="userSpaceOnUse"><stop offset="0" stop-color="#fff"/><stop offset=".337" stop-color="#fdfefe"/><stop offset=".496" stop-color="#f5f9fc"/><stop offset=".618" stop-color="#e8f1f9"/><stop offset=".722" stop-color="#d6e5f4"/><stop offset=".813" stop-color="#bed6ee"/><stop offset=".896" stop-color="#a1c4e6"/><stop offset=".971" stop-color="#7eafdd"/><stop offset="1" stop-color="#6fa5d9"/></radialGradient><path fill="url(#a)" d="M80.221 62.659c0 19.887-16.125 36.006-36.006 36.006-19.889 0-36.01-16.119-36.01-36.006 0-19.885 16.121-36 36.009-36 19.882-.001 36.007 16.115 36.007 36z"/><radialGradient id="b" cx="291.421" cy="-313.971" r="35.41" gradientTransform="matrix(1 0 0 -1 -247.6 -239.84)" gradientUnits="userSpaceOnUse"><stop offset=".012" stop-color="#fff"/><stop offset=".024" stop-color="#fef6f8"/><stop offset=".107" stop-color="#f8bdc9"/><stop offset=".192" stop-color="#f38b9f"/><stop offset=".278" stop-color="#ef607c"/><stop offset=".364" stop-color="#eb3d60"/><stop offset=".451" stop-color="#e92249"/><stop offset=".539" stop-color="#e70f3a"/><stop offset=".629" stop-color="#e50430"/><stop offset=".724" stop-color="#e5002d"/></radialGradient><path fill="url(#b)" d="M40.792 38.906L14.895 63.807l18.898 19.966 10.138-8.401L55.14 83.43l18.899-18.936-25.892-25.588v7.018s9.451 2.469 9.451 14.385c0 7.348-7.358 8.742-7.358 8.742s2.813-11.546-6.31-11.546c-9.074 0-5.244 10.86-5.244 10.86s-6.994-1.417-6.994-9.808c0-8.417 7.721-12.282 9.454-12.282l-.354-7.369z"/><radialGradient id="c" cx="291.809" cy="-303.718" r="7.868" gradientTransform="matrix(1 0 0 -1 -247.6 -239.84)" gradientUnits="userSpaceOnUse"><stop offset="0" stop-color="#fff"/><stop offset=".041" stop-color="#fdedf0"/><stop offset=".196" stop-color="#f7afbd"/><stop offset=".349" stop-color="#f17a91"/><stop offset=".497" stop-color="#ed4e6d"/><stop offset=".639" stop-color="#e92c51"/><stop offset=".773" stop-color="#e7143d"/><stop offset=".897" stop-color="#e60531"/><stop offset="1" stop-color="#e5002d"/></radialGradient><path fill="url(#c)" d="M44.205 71.745a7.867 7.867 0 1 0 0-15.734 7.868 7.868 0 0 0-7.865 7.868 7.862 7.862 0 0 0 7.865 7.866z"/><path d="M117.479 56.699c-.031 1.521-.214 3.328-.547 5.422-.333 2.094-.727 3.354-1.18 3.781-.453.427-.883.752-1.289.977s-1.948.336-4.625.336a59 59 0 0 1-1.922-.031l-.875-2.608c1.219.042 3.01.063 5.375.063.604 0 1.03-.255 1.28-.766.25-.51.521-2.047.813-4.609h-8.938c-1.719 4.219-5.75 6.938-12.094 8.156l-1.594-2.781c4.917-.302 8.422-2.094 10.516-5.375H93.87V56.7h9.594c.208-.719.38-1.563.516-2.531h2.845a23.14 23.14 0 0 1-.484 2.531l11.138-.001zm-12.578-14.953c-1.104.927-2.683 1.854-4.733 2.781l-.095.391c1.958 1.167 3.517 2.245 4.673 3.234l-1.531 2.172a35.37 35.37 0 0 0-4.517-3.266c-1.052 1.25-2.719 2.328-5 3.234l-1.594-2.203a11.649 11.649 0 0 0 3.617-1.875c1.067-.823 1.719-1.752 1.953-2.789.234-1.036.352-2.45.352-4.242h2.656c0 .927-.031 1.761-.094 2.5.969-.417 1.927-1.047 2.875-1.891l1.438 1.954zm13.891 13.703h-2.813v-2.078H95.245v2.078h-2.828v-4.641h26.375v4.641zM96.495 44.246l-2.22.891a23.546 23.546 0 0 0-1.813-4.219l2.108-1.063c.659 1.136 1.3 2.6 1.925 4.391zm22.719-2.656c-1.552 1.229-3.537 2.308-5.953 3.234l-.063.188a28.28 28.28 0 0 1 5.906 3.234l-1.688 1.984c-1.615-1.135-3.448-2.151-5.5-3.047-1.208 1.438-2.928 2.484-5.156 3.141l-1.375-2.234c2.135-.646 3.661-1.518 4.578-2.617.917-1.099 1.344-3.206 1.281-6.32h2.655c0 .667-.058 1.662-.172 2.984 1.146-.542 2.364-1.333 3.656-2.375l1.831 1.828zm-9.156 2.656l-2.233 1.063c-.512-1.677-1.198-3.182-2.063-4.516l2.25-.969c.801 1.313 1.483 2.787 2.046 4.422zm29.093 2.375h-6.188v1.813h5.516v9.406h-5.516v1.797h5.516v2.234h-5.516v2.031a53.319 53.319 0 0 0 5.672-.813l.125 2.281a221.87 221.87 0 0 1-14.656 1.922l-.578-2.313 6.875-.703V61.87h-5.594v-2.234h5.594V57.84h-5.594v-9.406h5.594v-1.813h-6.422v-2.344h6.422v-1.828c-1.386.177-3.058.318-5.016.422l-.703-2.234c4.864-.208 9.203-.713 13.016-1.516l1.095 2.047c-1.521.354-3.464.688-5.828 1v2.109h6.188l-.002 2.344zm-8.75 5.5V50.48h-3v1.641h3zm0 3.609v-1.625h-3v1.625h3zm5.485-3.578V50.48h-2.922v1.672h2.922zm0 3.578v-1.625h-2.922v1.625h2.922zm15.093-10.531c-.021 4.458-.12 8.753-.297 12.883-.178 4.13-.358 6.519-.547 7.164-.188.645-.547 1.143-1.078 1.492s-1.391.522-2.578.522c-.552 0-1.12-.026-1.703-.077l-.797-2.72c.813.063 1.458.094 1.938.094.927 0 1.469-.117 1.625-.352s.344-2.141.563-5.719c.22-3.578.291-7.122.22-10.633h-2.75c-.053 7.781-1.475 14.271-4.267 19.469l-2.469-1.22c2.844-5.125 4.161-11.208 3.953-18.25h-2.781v-2.656h2.844c.053-2.625.063-4.573.031-5.844h2.781c0 2.011-.031 3.958-.094 5.844l5.406.003zm21 7.906h-16.297V50.59h4.234a27.63 27.63 0 0 0-1.922-4.516l2.108-1.281h-3.781V42.23h6.345a14.479 14.479 0 0 0-1.345-2.563l2.813-.734c.51.802 1.021 1.901 1.531 3.297h5.766v2.563h-3.233l2.016 1.125c-.459 1.281-1.109 2.839-1.953 4.672h3.719l-.001 2.515zm-1.703 13.985h-2.75v-1.813h-7.203v1.813h-2.844V55.324h12.797V67.09zm-2.75-4.375v-4.797h-7.203v4.797h7.203zm.094-17.922h-7.095a41.285 41.285 0 0 1 2.267 5.797h2.469c1.197-2.406 1.984-4.339 2.359-5.797zm12.906 5.922c1.928 2.979 2.892 5.698 2.892 8.156 0 1.219-.217 2.19-.648 2.914-.433.724-.956 1.206-1.569 1.445-.615.24-1.854.323-3.72.25l-.797-2.75c.864.083 1.76.125 2.688.125.363 0 .666-.127.905-.383.239-.255.359-.852.359-1.789 0-2.364-1-4.854-3-7.469 1-2.646 1.896-5.536 2.688-8.672h-4.345V67.12h-2.688V39.965h9.75v2.578a92.935 92.935 0 0 1-2.515 8.172zm32.953 5.984c-.031 1.521-.214 3.328-.547 5.422-.334 2.094-.727 3.354-1.18 3.781-.453.427-.883.752-1.289.977s-1.948.336-4.625.336a59 59 0 0 1-1.922-.031l-.875-2.608c1.219.042 3.01.063 5.375.063.604 0 1.03-.255 1.28-.766.25-.51.521-2.047.813-4.609h-8.938c-1.719 4.219-5.75 6.938-12.094 8.156l-1.594-2.781c4.916-.302 8.422-2.094 10.516-5.375h-8.53V56.7h9.594c.208-.719.38-1.563.516-2.531h2.845a23.14 23.14 0 0 1-.484 2.531l11.139-.001zm-12.578-14.953c-1.104.927-2.683 1.854-4.733 2.781l-.094.391c1.957 1.167 3.516 2.245 4.672 3.234l-1.531 2.172a35.37 35.37 0 0 0-4.517-3.266c-1.053 1.25-2.719 2.328-5 3.234l-1.594-2.203a11.649 11.649 0 0 0 3.617-1.875c1.067-.823 1.719-1.752 1.953-2.789.234-1.036.352-2.45.352-4.242h2.656c0 .927-.031 1.761-.094 2.5.969-.417 1.927-1.047 2.875-1.891l1.438 1.954zm13.891 13.703h-2.813v-2.078h-20.733v2.078h-2.828v-4.641h26.375v4.641zm-22.297-11.203l-2.22.891a23.546 23.546 0 0 0-1.813-4.219l2.108-1.063c.659 1.136 1.3 2.6 1.925 4.391zm22.719-2.656c-1.553 1.229-3.537 2.308-5.953 3.234l-.063.188a28.28 28.28 0 0 1 5.906 3.234l-1.688 1.984c-1.615-1.135-3.448-2.151-5.5-3.047-1.209 1.438-2.929 2.484-5.156 3.141l-1.375-2.234c2.135-.646 3.661-1.518 4.578-2.617.916-1.099 1.344-3.206 1.281-6.32h2.655c0 .667-.058 1.662-.172 2.984 1.146-.542 2.364-1.333 3.656-2.375l1.831 1.828zm-9.156 2.656l-2.233 1.063c-.512-1.677-1.198-3.182-2.063-4.516l2.25-.969c.801 1.313 1.483 2.787 2.046 4.422zm41.437 21.828h-27.938v-2.891h12.484V43.324h-11.109V40.34h25.281v2.984h-11.109v19.859h12.392v2.891h-.001zm12.031-26.375a79.181 79.181 0 0 1-1.328 3.844l-.655 1.656v21.953h-2.906V50.996a37.333 37.333 0 0 1-2.047 2.844l-1.484-2.938c2.47-3.469 4.38-7.406 5.734-11.813l2.686.61zm6.719 19.078c-1.5 2.938-3.281 5.464-5.345 7.579l-2.391-1.75c1.896-1.896 3.63-4.266 5.203-7.109l2.533 1.28zm13.094-2.625h-8.703v11h-2.891v-11h-8.767v-2.75h8.767v-3.016h-7.031V40.09h16.797v10.297h-6.875v3.016h8.703v2.749zm-4.735-8.515v-4.828h-10.953v4.828h10.953zm4.985 17.437l-2.594 1.438c-1.084-2.281-2.684-4.828-4.798-7.641l2.47-1.375a46.663 46.663 0 0 1 4.922 7.578zm12.515-22.484c0 .136-.188.933-.563 2.391s-.818 2.854-1.328 4.188c1.406 2.479 2.108 4.787 2.108 6.922 0 1.74-.35 2.927-1.047 3.563-.697.636-1.594.953-2.688.953a6.06 6.06 0 0 1-.609-.031l-.641-2.922c.427.083.802.125 1.125.125.833 0 1.25-.547 1.25-1.641 0-2.188-.792-4.5-2.375-6.938.885-2.031 1.599-4.271 2.141-6.719h-2.531v24.671h-2.719v-27.39h7.875l.002 2.828zm9.375 21.234l-1.797 1.953c-.979-1.021-1.928-1.885-2.844-2.594-.969 1.417-2.184 2.828-3.642 4.234l-2.25-1.703c2.656-2.364 4.458-4.766 5.406-7.203l2.563.75a18.86 18.86 0 0 1-.798 1.781 29.215 29.215 0 0 1 3.362 2.782zm10.469-17.719l-1.516 2.391a31.189 31.189 0 0 1-3.359-1.953v1.891H296.87V46.45c-1.406.896-2.537 1.547-3.392 1.953l-1.563-2.297c4.188-2.042 7.344-4.411 9.469-7.109l2.813.859c-.209.323-.344.516-.406.578 1.709 2.021 4.428 3.911 8.157 5.671zm-10.782 11.969H293.9V49.84h7.266v8.234zm-2.625-2.562V52.34h-1.983v3.172h1.983zm7.36-9.703c-1.886-1.417-3.188-2.547-3.906-3.391-1.405 1.333-2.78 2.464-4.125 3.391h8.031zm5.843 19.75l-1.905 1.828c-1.417-1.49-2.74-2.708-3.97-3.656-.803 1.188-1.797 2.427-2.983 3.719l-2.172-1.673c2.354-2.447 3.974-4.833 4.858-7.155l2.531.734-1 2.203c2.085 1.521 3.631 2.854 4.641 4zm-1.5-7.485h-7.422V49.84h7.422v8.234zm-2.686-2.562V52.34h-2.047v3.172h2.047zm35.015-5.063c0 2.552-.108 5.576-.328 9.07-.219 3.495-.439 5.503-.664 6.023-.225.521-.604.958-1.141 1.313-.537.354-1.217.53-2.039.53-1.25 0-2.443-.03-3.578-.094l-.672-2.719c1.114.084 2.416.125 3.906.125.563 0 .903-.356 1.022-1.07.119-.713.33-4.242.634-10.586h-18.297c-.229 5.865-1.543 10.708-3.938 14.531l-2.297-1.859c2.281-3.354 3.422-8.432 3.422-15.234V40.121h23.266v7.844h-20.422v2.484h21.126zm-3.657-5.015v-2.75h-17.469v2.75h17.469zm-2.687 17.625h-12.703V55.09h12.703v7.969zm-2.813-2.563v-2.875H326.4v2.875h7.016z" fill="#545454"/><path d="M91.449 84.993V77.43h2.113c.628 0 1.134.158 1.52.475.385.316.576.734.576 1.255 0 .423-.113.794-.34 1.112-.226.319-.546.549-.959.688v.021c.504.049.911.236 1.219.565.307.329.461.755.461 1.279 0 .642-.23 1.163-.691 1.563-.46.402-1.042.604-1.746.604h-2.153zm.83-6.792v2.484h.918c.501 0 .893-.119 1.173-.358.279-.238.42-.573.42-1.003 0-.749-.488-1.123-1.465-1.123h-1.046zm0 3.252v2.77h1.227c.521 0 .929-.125 1.223-.373.294-.25.442-.595.442-1.033 0-.908-.622-1.362-1.865-1.362l-1.027-.002zm10.801.498c0 2.111-.952 3.169-2.856 3.169-1.815 0-2.725-1.019-2.725-3.052V77.43h.83v4.58c0 1.572.666 2.358 1.997 2.358 1.282 0 1.924-.759 1.924-2.275V77.43h.83v4.521zm7.266 3.042h-.996l-1.27-2.129c-.271-.456-.517-.755-.737-.896a1.412 1.412 0 0 0-.776-.212h-.747v3.237h-.83V77.43h2.228c.693 0 1.245.18 1.655.534.41.356.614.851.614 1.478 0 1.045-.558 1.725-1.675 2.037v.02c.208.091.38.21.516.355.135.146.338.438.607.869l1.411 2.27zm-4.527-6.792v2.783h1.235c.459 0 .833-.135 1.123-.403s.435-.625.435-1.071c0-.41-.132-.73-.396-.962s-.648-.347-1.152-.347h-1.245zm9.566 6.792h-3.975V77.43h3.804v.762h-2.974v2.574h2.748v.762h-2.748v2.705h3.145v.76zm7.27 0h-.923l-.819-2.147h-3.242l-.768 2.147h-.928l2.91-7.563h.845l2.925 7.563zm-2.026-2.91l-1.211-3.267a3.5 3.5 0 0 1-.112-.498h-.023a2.423 2.423 0 0 1-.122.498l-1.196 3.267h2.664zm8.642-.132c0 2.111-.952 3.169-2.855 3.169-1.816 0-2.726-1.019-2.726-3.052V77.43h.83v4.58c0 1.572.666 2.358 1.997 2.358 1.282 0 1.924-.759 1.924-2.275V77.43h.83v4.521zm3.912-.649c0-1.214.33-2.185.988-2.909.66-.727 1.551-1.09 2.674-1.09 1.042 0 1.881.354 2.518 1.064s.954 1.624.954 2.744c0 1.207-.32 2.178-.964 2.91-.644.731-1.521 1.099-2.635 1.099-1.064 0-1.92-.356-2.566-1.069-.646-.713-.969-1.629-.969-2.749zm.874-.077c0 .907.241 1.658.723 2.254.481.594 1.127.891 1.935.891.862 0 1.534-.281 2.015-.842.479-.563.721-1.324.721-2.289 0-.995-.231-1.773-.696-2.334-.463-.559-1.12-.84-1.97-.84-.827 0-1.487.3-1.982.896-.499.598-.746 1.352-.746 2.264zm11.567-3.034h-2.975v2.666h2.754v.762h-2.754v3.374h-.83V77.43h3.805v.761zm7.832 6.802h-3.888V77.43h.83v6.803h3.058v.76zm6.968 0h-.923l-.82-2.147h-3.242l-.767 2.147h-.928l2.909-7.563h.846l2.925 7.563zm-2.027-2.91l-1.211-3.267a3.692 3.692 0 0 1-.111-.498h-.024a2.359 2.359 0 0 1-.122.498l-1.196 3.267h2.664zm3.155 2.91V77.43h2.114c.628 0 1.135.158 1.519.475s.576.734.576 1.255c0 .423-.113.794-.34 1.112a1.87 1.87 0 0 1-.959.688v.021c.505.049.91.236 1.219.565.307.329.461.755.461 1.279 0 .642-.229 1.163-.69 1.563-.46.402-1.042.604-1.745.604h-2.155zm.83-6.792v2.484h.918c.501 0 .892-.119 1.172-.358.28-.238.42-.573.42-1.003 0-.749-.488-1.123-1.465-1.123h-1.045zm0 3.252v2.77h1.226c.521 0 .93-.125 1.225-.373.294-.25.44-.595.44-1.033 0-.908-.622-1.362-1.864-1.362l-1.027-.002zm4.814-.151c0-1.214.33-2.185.988-2.909.66-.727 1.551-1.09 2.674-1.09 1.042 0 1.881.354 2.519 1.064.636.71.954 1.624.954 2.744 0 1.207-.321 2.178-.964 2.91-.645.731-1.521 1.099-2.636 1.099-1.063 0-1.92-.356-2.565-1.069s-.97-1.629-.97-2.749zm.874-.077c0 .907.241 1.658.724 2.254.48.594 1.126.891 1.934.891.862 0 1.534-.281 2.016-.842.479-.563.72-1.324.72-2.289 0-.995-.231-1.773-.696-2.334-.463-.559-1.12-.84-1.97-.84-.827 0-1.487.3-1.982.896-.499.598-.746 1.352-.746 2.264zm13.12 3.768h-.996l-1.27-2.129c-.271-.456-.516-.755-.737-.896a1.411 1.411 0 0 0-.775-.212h-.747v3.237h-.83V77.43h2.227c.693 0 1.245.18 1.655.534.41.356.615.851.615 1.478 0 1.045-.56 1.725-1.676 2.037v.02c.208.091.381.21.516.355.136.146.338.438.607.869l1.411 2.27zm-4.526-6.792v2.783h1.234c.459 0 .833-.135 1.123-.403s.436-.625.436-1.071c0-.41-.132-.73-.396-.962-.264-.231-.646-.347-1.151-.347h-1.246zm8.921 6.792h-.83V77.43h.83v7.563zm8.061 0h-1.045l-3.945-6.108a3.454 3.454 0 0 1-.233-.453h-.029c.026.155.039.494.039 1.016v5.547h-.835V77.43h1.104l3.838 6.045c.194.313.298.485.308.519h.021a8.704 8.704 0 0 1-.055-1.138V77.43h.835v7.563h-.003zm1.651-1.307c.212.191.517.353.915.479.398.129.768.192 1.105.192 1.102 0 1.65-.399 1.65-1.2 0-.226-.057-.425-.171-.601a1.594 1.594 0 0 0-.461-.457c-.194-.129-.576-.34-1.146-.633-.819-.42-1.34-.785-1.558-1.099s-.327-.666-.327-1.06c0-.608.247-1.097.742-1.461.495-.363 1.116-.547 1.865-.547.755 0 1.291.09 1.605.27v.962c-.441-.306-1.014-.459-1.714-.459-.479 0-.869.102-1.172.306a.971.971 0 0 0-.454.855c0 .229.053.427.158.594.105.168.25.313.433.438.184.125.537.317 1.064.582.742.367 1.262.727 1.558 1.076s.444.741.444 1.174c0 .646-.234 1.144-.703 1.494-.469.352-1.125.527-1.968.527-.257 0-.593-.042-1.004-.127s-.7-.188-.866-.309v-.998h.005zm11.557-1.735c0 2.111-.952 3.169-2.855 3.169-1.816 0-2.726-1.019-2.726-3.052V77.43h.83v4.58c0 1.572.666 2.358 1.997 2.358 1.282 0 1.924-.759 1.924-2.275V77.43h.83v4.521zm7.266 3.042h-.996l-1.271-2.129c-.271-.456-.516-.755-.736-.896a1.417 1.417 0 0 0-.776-.212h-.747v3.237h-.83V77.43h2.228c.692 0 1.244.18 1.654.534.41.356.615.851.615 1.478 0 1.045-.559 1.725-1.675 2.037v.02c.208.091.38.21.515.355.136.146.338.438.608.869l1.411 2.27zm-4.526-6.792v2.783h1.235c.459 0 .833-.135 1.123-.403s.435-.625.435-1.071c0-.41-.132-.73-.396-.962-.265-.231-.647-.347-1.152-.347h-1.245zm11.391 6.792h-.923l-.819-2.147H216l-.768 2.147h-.928l2.91-7.563h.845l2.926 7.563zm-2.026-2.91l-1.211-3.267a3.65 3.65 0 0 1-.112-.498h-.024a2.308 2.308 0 0 1-.121.498l-1.196 3.267h2.664zm9.204 2.91h-1.045l-3.945-6.108a3.586 3.586 0 0 1-.234-.453h-.028c.025.155.039.494.039 1.016v5.547h-.836V77.43h1.104l3.838 6.045c.195.313.298.485.308.519h.021a8.744 8.744 0 0 1-.054-1.138V77.43h.835v7.563h-.003zm7.129-.322c-.558.3-1.252.449-2.085.449-1.063 0-1.917-.351-2.565-1.05-.649-.7-.975-1.604-.975-2.715 0-1.166.355-2.133 1.068-2.9.714-.768 1.64-1.152 2.778-1.152.716 0 1.309.104 1.777.313v.897a3.661 3.661 0 0 0-1.797-.449c-.898 0-1.615.304-2.15.908-.536.605-.804 1.385-.804 2.334 0 .901.251 1.639.752 2.207.501.569 1.174.854 2.017.854.762 0 1.423-.169 1.982-.509l.002.813zm5.527.322h-3.975V77.43h3.804v.762h-2.974v2.574h2.749v.762h-2.749v2.705h3.145v.76zm2.095-1.191l-.851 2.589h-.57l.619-2.589h.802zm11.001 1.191v-5.107c0-.388.025-.874.078-1.46h-.024c-.091.358-.166.596-.225.713l-2.638 5.854h-.371l-2.632-5.815a4.397 4.397 0 0 1-.22-.752h-.024c.029.268.044.749.044 1.445v5.122h-.811V77.43h1.084l2.368 5.327c.186.42.303.718.352.894h.034c.098-.264.22-.568.366-.918l2.422-5.303h1.025v7.563h-.828zm3.662 0h-.83V77.43h.83v7.563zm8.062 0h-1.045l-3.945-6.108a3.454 3.454 0 0 1-.233-.453h-.029c.026.155.039.494.039 1.016v5.547h-.835V77.43h1.104l3.839 6.045c.194.313.298.485.308.519h.02a8.928 8.928 0 0 1-.054-1.138V77.43h.835v7.563h-.004zm2.832 0h-.83V77.43h.83v7.563zm1.66-1.307c.212.191.517.353.915.479.398.129.768.192 1.105.192 1.102 0 1.65-.399 1.65-1.2 0-.226-.057-.425-.171-.601a1.594 1.594 0 0 0-.461-.457c-.194-.129-.576-.34-1.146-.633-.819-.42-1.34-.785-1.558-1.099s-.327-.666-.327-1.06c0-.608.247-1.097.742-1.461.495-.363 1.116-.547 1.865-.547.755 0 1.291.09 1.605.27v.962c-.441-.306-1.014-.459-1.714-.459-.479 0-.869.102-1.172.306a.971.971 0 0 0-.454.855c0 .229.053.427.158.594.105.168.25.313.433.438.184.125.537.317 1.064.582.742.367 1.262.727 1.558 1.076s.444.741.444 1.174c0 .646-.234 1.144-.703 1.494-.469.352-1.125.527-1.968.527-.257 0-.593-.042-1.004-.127s-.7-.188-.866-.309v-.998h.005zm10.483-5.495h-2.183v6.802h-.835v-6.802h-2.178v-.761h5.194l.002.761zm6.558 6.802h-.996l-1.271-2.129c-.271-.456-.516-.755-.736-.896a1.417 1.417 0 0 0-.776-.212h-.747v3.237h-.83V77.43h2.228c.692 0 1.245.18 1.654.534.41.356.615.851.615 1.478 0 1.045-.559 1.725-1.675 2.037v.02c.208.091.38.21.516.355.136.146.338.438.607.869l1.411 2.27zm-4.526-6.792v2.783h1.235c.459 0 .833-.135 1.123-.403s.435-.625.435-1.071c0-.41-.132-.73-.396-.962-.265-.231-.647-.347-1.152-.347h-1.245zm10.454-.771l-2.495 4.766v2.799h-.835V82.21l-2.437-4.78h.952l1.719 3.457c.025.053.088.203.186.454h.016c.036-.114.104-.266.205-.454l1.807-3.457h.882zm3.071 3.872c0-1.214.33-2.185.988-2.909.659-.727 1.551-1.09 2.673-1.09 1.043 0 1.882.354 2.519 1.064.636.71.954 1.624.954 2.744 0 1.207-.321 2.178-.964 2.91-.645.731-1.521 1.099-2.636 1.099-1.063 0-1.92-.356-2.565-1.069s-.969-1.629-.969-2.749zm.874-.077c0 .907.241 1.658.723 2.254.48.594 1.126.891 1.934.891.862 0 1.534-.281 2.016-.842.479-.563.72-1.324.72-2.289 0-.995-.231-1.773-.696-2.334-.463-.559-1.12-.84-1.97-.84-.827 0-1.487.3-1.982.896-.498.598-.745 1.352-.745 2.264zm11.567-3.034h-2.974v2.666h2.754v.762h-2.754v3.374h-.83V77.43h3.804v.761zm7.832 6.802h-3.887V77.43h.83v6.803h3.057v.76zm6.967 0h-.923l-.819-2.147h-3.242l-.768 2.147h-.928l2.91-7.563h.845l2.925 7.563zm-2.025-2.91l-1.211-3.267a3.65 3.65 0 0 1-.112-.498h-.024a2.24 2.24 0 0 1-.122.498l-1.195 3.267h2.664zm3.153 2.91V77.43h2.114c.628 0 1.135.158 1.52.475.384.316.575.734.575 1.255 0 .423-.112.794-.34 1.112-.226.319-.546.549-.959.688v.021c.505.049.91.236 1.22.565.307.329.461.755.461 1.279 0 .642-.23 1.163-.691 1.563-.46.402-1.042.604-1.745.604h-2.155zm.83-6.792v2.484h.918c.501 0 .893-.119 1.173-.358.279-.238.42-.573.42-1.003 0-.749-.488-1.123-1.466-1.123h-1.045zm0 3.252v2.77h1.227c.521 0 .929-.125 1.224-.373.294-.25.441-.595.441-1.033 0-.908-.622-1.362-1.865-1.362l-1.027-.002zm4.816-.151c0-1.214.33-2.185.988-2.909.659-.727 1.551-1.09 2.674-1.09 1.042 0 1.881.354 2.518 1.064s.954 1.624.954 2.744c0 1.207-.321 2.178-.964 2.91-.644.731-1.521 1.099-2.635 1.099-1.064 0-1.92-.356-2.566-1.069-.646-.713-.969-1.629-.969-2.749zm.874-.077c0 .907.241 1.658.723 2.254.481.594 1.126.891 1.935.891.861 0 1.533-.281 2.015-.842.479-.563.72-1.324.72-2.289 0-.995-.23-1.773-.695-2.334-.464-.559-1.12-.84-1.971-.84-.827 0-1.486.3-1.981.896-.499.598-.746 1.352-.746 2.264zm13.12 3.768h-.996l-1.271-2.129c-.271-.456-.516-.755-.736-.896a1.417 1.417 0 0 0-.776-.212h-.747v3.237h-.83V77.43h2.228c.692 0 1.245.18 1.654.534.41.356.615.851.615 1.478 0 1.045-.559 1.725-1.675 2.037v.02c.208.091.38.21.515.355.137.146.338.438.608.869l1.411 2.27zm-4.527-6.792v2.783h1.235c.459 0 .833-.135 1.123-.403s.435-.625.435-1.071c0-.41-.132-.73-.396-.962-.265-.231-.647-.347-1.152-.347h-1.245z" fill="#242424"/></svg>