<svg xmlns="http://www.w3.org/2000/svg" width="112.52" height="129.7"><path fill="#FFF" d="M96.149 42.411c0 22.407-18.167 40.569-40.571 40.569-22.41 0-40.574-18.162-40.574-40.569 0-22.408 18.165-40.565 40.574-40.565 22.403 0 40.571 18.157 40.571 40.565z"/><radialGradient id="a" cx="694.892" cy="929.508" r="47.246" gradientTransform="matrix(.8999 0 0 -.8999 -569.571 878.979)" gradientUnits="userSpaceOnUse"><stop offset="0" stop-color="#fff"/><stop offset=".334" stop-color="#fefeff"/><stop offset=".493" stop-color="#f8fafd"/><stop offset=".614" stop-color="#ecf2fa"/><stop offset=".717" stop-color="#dce7f5"/><stop offset=".807" stop-color="#c6d8ef"/><stop offset=".89" stop-color="#aac6e8"/><stop offset=".964" stop-color="#86b1df"/><stop offset="1" stop-color="#6fa6da"/></radialGradient><path fill="url(#a)" d="M98.282 42.512c0 23.482-19.041 42.517-42.518 42.517-23.485 0-42.521-19.032-42.521-42.517S32.279 0 55.763 0c23.479 0 42.519 19.028 42.519 42.512z"/><radialGradient id="b" cx="302.9" cy="-296.199" r="41.812" gradientTransform="matrix(1 0 0 -1 -247.6 -240.14)" gradientUnits="userSpaceOnUse"><stop offset=".012" stop-color="#fff"/><stop offset=".024" stop-color="#fffaf8"/><stop offset=".107" stop-color="#f9cfc1"/><stop offset=".192" stop-color="#f3a591"/><stop offset=".278" stop-color="#ee7f6c"/><stop offset=".364" stop-color="#eb5f51"/><stop offset=".451" stop-color="#e8433f"/><stop offset=".539" stop-color="#e72834"/><stop offset=".629" stop-color="#e60b2f"/><stop offset=".724" stop-color="#e6002d"/></radialGradient><path fill="url(#b)" d="M51.723 14.465l-30.58 29.404 22.313 23.578 11.973-9.923 13.237 9.514 22.315-22.36-30.573-30.213v8.285s11.16 2.915 11.16 16.987c0 8.677-8.688 10.322-8.688 10.322s3.321-13.632-7.451-13.632c-10.715 0-6.191 12.819-6.191 12.819s-8.259-1.67-8.259-11.579c0-9.938 9.115-14.502 11.164-14.502l-.42-8.7z"/><radialGradient id="c" cx="303.357" cy="-284.093" r="9.291" gradientTransform="matrix(1 0 0 -1 -247.6 -240.14)" gradientUnits="userSpaceOnUse"><stop offset="0" stop-color="#fff"/><stop offset=".041" stop-color="#fef3ef"/><stop offset=".196" stop-color="#f7c3b3"/><stop offset=".349" stop-color="#f19682"/><stop offset=".497" stop-color="#ec6f5d"/><stop offset=".639" stop-color="#e94d45"/><stop offset=".773" stop-color="#e73037"/><stop offset=".897" stop-color="#e6102f"/><stop offset="1" stop-color="#e6002d"/></radialGradient><path fill="url(#c)" d="M55.754 53.244a9.289 9.289 0 0 0 9.295-9.283v-.008c0-5.13-4.159-9.291-9.295-9.291-5.128 0-9.288 4.161-9.288 9.291a9.29 9.29 0 0 0 9.288 9.291z"/><path fill="#FFF" d="M10.32 113.588h7.341c-.191 1.879-.585 3.394-1.179 4.543-.594 1.152-1.405 1.728-2.432 1.728-.672 0-1.886-.208-3.643-.624l-.299-1.48c.532.148 1.125.334 1.783.555.656.223 1.199.333 1.628.333.576 0 .961-.106 1.157-.317.195-.211.46-.715.792-1.51.331-.795.542-1.465.631-2.008h-5.99c-1.159 3.289-4.271 5.104-9.334 5.445L0 118.862c4.51-.146 7.346-1.5 8.504-4.057H3.355v-1.198l5.559-.041c.118-.274.232-.913.343-1.913l1.429.342-.366 1.593zm-.365-5.235l-1.041.866c-.11-.067-.272-.205-.486-.413-.657-.624-1.592-1.147-2.802-1.57-1.019 1.201-2.462 2.033-4.33 2.497l-.863-1.218c3.159-.423 4.819-2.201 4.982-5.335l.101-1.751 1.361.262c-.073 2.06-.31 3.547-.708 4.459 1.615.569 2.877 1.304 3.786 2.203zm9.411 1.671v2.838H17.96v-1.621H2.536v1.691H1.129v-2.909l18.237.001zm-16.731-3.815l-1.229-.555c.679-1.006 1.063-2.08 1.151-3.221l1.185.292c-.051 1.358-.42 2.518-1.107 3.484zm6.046-3.855l1.163.553c-.236 1.27-.676 2.299-1.318 3.09l-1.229-.553c.79-1.08 1.251-2.111 1.384-3.09zm5.669 1.419h.021a8.37 8.37 0 0 0 .145-1.61c0-.234-.009-.473-.022-.715l1.307.201c.022.255.033.508.033.755 0 1.343-.221 2.526-.664 3.554 1.883.584 3.403 1.485 4.563 2.707l-1.02.906c-.539-.624-1.207-1.181-2.004-1.671a33.16 33.16 0 0 1-.919-.428c-.472-.226-.875-.364-1.207-.418-.944 1.376-2.186 2.269-3.721 2.678l-.731-1.198c2.458-.637 3.872-2.211 4.241-4.721l-.022-.04zm-2.558 2.255l-1.361-.313c.656-1.133.997-2.24 1.019-3.321l1.229.231c-.053 1.383-.348 2.517-.887 3.403zm6.146-3.735l1.106.473a7.043 7.043 0 0 1-1.45 3.07l-1.24-.594a7.093 7.093 0 0 0 1.584-2.949zm24.305 15.321H23.585v-1.277h8.504v-10.813h-7.252v-1.277H40.98v1.277h-7.242v10.813h8.504l.001 1.277zm7.674-10.891v13.549H48.51v-11.031c-.073-.035-.129-.009-.165.074-.037.084-.306.41-.804.977a15.544 15.544 0 0 1-1.556 1.545l-1.063-.905c.931-.798 1.885-1.919 2.863-3.362.979-1.441 1.771-3.482 2.375-6.119l1.273.533c-.104.777-.385 1.795-.843 3.051l-.673 1.688zm8.813 5.526v7.963h-1.406v-7.822l-.044-.04c-1.151 2.838-3.078 4.948-5.78 6.332l-1.185-.966c2.436-1.147 4.304-2.996 5.603-5.547h-4.85v-1.217h6.256v-2.023h-4.618v-6.514h10.409v6.514H58.73v2.023h6.123v1.217h-4.529c.893 2.33 2.82 4.178 5.78 5.547l-1.085.945c-2.762-1.127-4.842-3.265-6.245-6.412h-.044zm-4.628-4.54h7.606v-4.078h-7.606v4.078zm16.487-4.097v16.51h-1.405v-17.688h5.646v1.037l-2.082 5.043c1.24 1.423 1.86 2.785 1.86 4.087 0 .69-.223 1.237-.67 1.642-.447.401-1.091.604-1.933.604-.154 0-.34-.006-.554-.02l-.432-1.299c.081 0 .237.014.47.04.233.027.416.041.548.041.806 0 1.207-.379 1.207-1.138 0-1.102-.665-2.35-1.993-3.745.864-1.894 1.542-3.597 2.038-5.114h-2.7zm9.822-2.697l1.273.574-.21.372c1.72 2.591 4.134 4.438 7.241 5.548l-.886 1.106a18.839 18.839 0 0 1-1.672-.675c-.59-.269-1.004-.496-1.24-.685l-1.351-1.026v1.026H78.14v-1.106c-1.352 1.134-2.613 1.97-3.787 2.507l-.976-1.048c3.007-1.47 5.351-3.668 7.034-6.593zm-6.732 18.279c2.133-.913 3.425-2.402 3.875-4.469l1.229.281c-.015.283-.122.703-.321 1.259 1.277.51 2.122.937 2.536 1.278l-.831.906a7.302 7.302 0 0 0-2.226-1.148c-.738 1.162-1.775 2.074-3.111 2.738l-1.151-.845zm6.777-10.268v4.953h-4.828v-4.953h4.828zm-1.318 1.179h-2.192v2.597h2.192v-2.597zm-.897-4.127h5.193a17.195 17.195 0 0 1-2.791-2.959c-.856 1.214-1.657 2.2-2.402 2.959zm3.255 13.961l-1.129-.866c1.971-.933 3.052-2.426 3.245-4.479l1.295.251c-.037.368-.159.879-.366 1.53 1.624.569 2.895 1.326 3.81 2.265l-.952.845c-.775-.865-1.901-1.561-3.377-2.083-.562 1.048-1.404 1.893-2.526 2.537zm5.127-11.013v4.953h-4.872v-4.953h4.872zm-1.307 1.179h-2.248v2.597h2.248v-2.597zm24.648-1.138v1.609l-.276 3.362c-.332 2.758-.703 4.421-1.113 4.987-.41.568-1.046.852-1.91.852-.442 0-1.296-.064-2.558-.191l-.376-1.379 2.968.394c.295-.047.537-.198.725-.453.188-.255.404-1.187.648-2.793s.413-3.331.509-5.169H95.105l-.199 3.141a17.767 17.767 0 0 1-.698 2.965c-.332 1.029-1.015 2.272-2.048 3.729l-1.106-.967c.878-1.08 1.471-2.122 1.776-3.125.307-1.002.518-1.84.631-2.512.114-.67.172-2.392.172-5.164v-5.877h14.672v5.013H95.039v1.581h14.925v-.003zm-14.925-5.375v2.576h11.859v-2.576H95.039zm3.399 13.198v1.106h-1.406v-6h8.504v5.737h-1.406v-.846h-5.691v.003zm5.691-3.674h-5.69v2.455h5.69v-2.455zm-99.423 14.89c.005.234-.045.467-.146.679a1.387 1.387 0 0 1-.392.485c-.188.149-.406.26-.639.324a3.38 3.38 0 0 1-.885.098H.817v-5.157h1.527a6.4 6.4 0 0 1 .845.042c.187.027.366.085.537.173a.964.964 0 0 1 .412.384c.085.155.128.342.128.559 0 .244-.063.453-.188.625-.13.176-.302.318-.499.414v.027c.35.072.624.225.824.459.203.234.303.53.303.888zm-1.153-2.324a.718.718 0 0 0-.063-.314.5.5 0 0 0-.201-.209.97.97 0 0 0-.395-.115 6.14 6.14 0 0 0-.575-.022h-.817v1.489h.888c.215 0 .386-.012.513-.033s.245-.068.353-.137a.56.56 0 0 0 .23-.269c.044-.111.067-.239.067-.39zm.44 2.352c0-.207-.031-.373-.093-.494a.752.752 0 0 0-.34-.313 1.092 1.092 0 0 0-.403-.111 5.054 5.054 0 0 0-.577-.027H1.502v1.918h.908c.3 0 .546-.016.738-.047.191-.03.349-.088.471-.17a.869.869 0 0 0 .284-.309.959.959 0 0 0 .09-.447zm5.569-.513c0 .374-.041.7-.123.979-.14.508-.525.914-1.027 1.078a2.547 2.547 0 0 1-.831.121c-.323 0-.604-.043-.845-.128a1.576 1.576 0 0 1-1.01-1.063 3.377 3.377 0 0 1-.123-.986v-3.086h.686v3.121c0 .279.02.5.058.662.037.162.102.308.191.439.103.15.239.264.414.34s.384.113.629.113a1.6 1.6 0 0 0 .63-.111.952.952 0 0 0 .416-.342c.09-.132.154-.281.192-.451s.057-.381.057-.633v-3.138h.687v3.085zm5.576 2.071h-.891l-1.725-2.051h-.966v2.051h-.687v-5.157h1.444c.312 0 .572.021.779.062.208.041.395.112.562.217.187.117.333.266.438.445.104.178.157.405.157.68 0 .373-.094.684-.28.935a1.702 1.702 0 0 1-.772.565l1.941 2.253zm-1.603-3.707a.933.933 0 0 0-.078-.393.693.693 0 0 0-.258-.289.951.951 0 0 0-.353-.14 2.589 2.589 0 0 0-.481-.04h-.807v1.946h.692c.217 0 .406-.019.568-.058a.9.9 0 0 0 .642-.547 1.29 1.29 0 0 0 .075-.479zm5.666 3.707h-3.396v-5.157h3.396v.61h-2.712v1.412h2.712v.609h-2.712v1.916h2.712v.61zm5.154 0h-.731l-.505-1.438H20.89l-.507 1.438h-.695l1.877-5.157h.915l1.875 5.157zm-1.448-2.026l-.904-2.532-.907 2.532h1.811zm6.078-.045c0 .374-.041.7-.123.979-.14.508-.525.914-1.027 1.078a2.547 2.547 0 0 1-.831.121 2.54 2.54 0 0 1-.845-.128 1.576 1.576 0 0 1-1.01-1.063 3.377 3.377 0 0 1-.123-.986v-3.086h.686v3.121c0 .279.02.5.058.662s.102.308.191.439c.103.15.239.264.414.34s.384.113.629.113a1.6 1.6 0 0 0 .63-.111.952.952 0 0 0 .416-.342c.091-.132.154-.281.192-.451s.057-.381.057-.633v-3.138h.687v3.085zm19.358 2.071h-3.262v-5.157h.687v4.548h2.577v.609h-.002zm4.752 0h-.731l-.505-1.438h-2.23l-.506 1.438h-.695l1.877-5.157h.915l1.875 5.157zm-1.448-2.026l-.904-2.532-.908 2.532h1.812zm6.12.44c.005.234-.045.467-.146.679a1.374 1.374 0 0 1-.391.485c-.189.149-.406.26-.64.324a3.38 3.38 0 0 1-.885.098h-1.829v-5.157h1.527c.376 0 .658.015.845.042.188.027.366.085.537.173a.958.958 0 0 1 .412.384c.085.155.128.342.128.559 0 .244-.062.453-.187.625a1.37 1.37 0 0 1-.499.414v.027c.349.072.624.225.823.459.205.234.305.53.305.888zm-1.153-2.324a.717.717 0 0 0-.062-.314.506.506 0 0 0-.201-.209.98.98 0 0 0-.396-.115 6.126 6.126 0 0 0-.575-.022h-.816v1.489h.887c.215 0 .386-.012.513-.033s.245-.068.354-.137a.558.558 0 0 0 .229-.269c.044-.111.067-.239.067-.39zm.44 2.352c0-.207-.031-.373-.094-.494a.742.742 0 0 0-.34-.313 1.092 1.092 0 0 0-.403-.111 5.037 5.037 0 0 0-.576-.027h-1.077v1.918h.907c.3 0 .546-.016.737-.047.192-.03.35-.088.472-.17a.857.857 0 0 0 .283-.309.96.96 0 0 0 .091-.447zm5.531-3.007c.21.231.371.515.483.849.112.336.168.715.168 1.141 0 .425-.057.805-.172 1.141-.1.311-.263.597-.479.84-.207.23-.465.41-.753.526-.29.118-.621.177-.992.177-.361 0-.691-.06-.988-.18s-.549-.294-.757-.523a2.294 2.294 0 0 1-.479-.842 3.57 3.57 0 0 1-.168-1.139c0-.42.055-.797.166-1.131s.272-.62.485-.857c.202-.227.456-.398.757-.52s.63-.18.984-.18c.37 0 .701.061.996.182.293.12.543.293.749.516zm-.063 1.989c0-.67-.15-1.188-.45-1.551-.3-.362-.71-.545-1.229-.545-.523 0-.936.183-1.234.545-.299.365-.448.881-.448 1.551 0 .676.152 1.193.457 1.553s.713.539 1.226.539c.514 0 .922-.18 1.226-.539.301-.36.452-.877.452-1.553zm6.068 2.576h-.89l-1.725-2.051h-.967v2.051h-.686v-5.157h1.444c.312 0 .571.021.778.062.208.041.396.112.563.217.187.117.333.266.438.445.105.178.158.405.158.68 0 .373-.094.684-.281.935a1.694 1.694 0 0 1-.771.565l1.939 2.253zm-1.603-3.707a.933.933 0 0 0-.078-.393.693.693 0 0 0-.258-.289.962.962 0 0 0-.354-.14 2.571 2.571 0 0 0-.48-.04h-.807v1.946h.693c.217 0 .406-.019.568-.058a.9.9 0 0 0 .642-.547c.049-.123.074-.283.074-.479zm6.581 3.707h-2.037v-.526h.675v-4.104h-.675v-.525h2.037v.525h-.676v4.104h.676v.526zm5.101 0h-.848l-2.445-4.613v4.613h-.641v-5.157h1.063l2.23 4.212v-4.212h.641v5.157zm5.119-1.472c0 .201-.046.4-.14.596a1.424 1.424 0 0 1-.394.5 2.104 2.104 0 0 1-.646.346c-.287.09-.587.131-.888.125-.372 0-.706-.035-1.004-.104a4.984 4.984 0 0 1-.905-.31v-.858h.049c.261.217.562.385.904.502.342.117.663.176.963.176.425 0 .755-.079.992-.238.236-.159.354-.372.354-.637 0-.229-.056-.397-.168-.506s-.282-.192-.511-.252a4.972 4.972 0 0 0-.563-.115c-.202-.03-.416-.068-.642-.114-.458-.097-.796-.263-1.018-.497-.221-.234-.331-.54-.331-.917 0-.433.184-.786.548-1.062.363-.276.827-.414 1.389-.414a4.5 4.5 0 0 1 1.802.359v.811h-.048a2.4 2.4 0 0 0-.774-.413 3.002 3.002 0 0 0-.981-.165c-.367 0-.662.076-.885.229-.224.153-.334.35-.334.59 0 .213.055.383.166.504.11.123.306.217.585.281.146.032.357.071.63.118.271.048.503.093.691.142.384.103.673.256.866.461.196.205.293.492.293.862zm4.984-.599c0 .374-.041.7-.123.979-.14.508-.525.914-1.027 1.078a2.547 2.547 0 0 1-.831.121c-.323 0-.604-.043-.845-.128a1.576 1.576 0 0 1-1.01-1.063 3.377 3.377 0 0 1-.123-.986v-3.086h.686v3.121c0 .279.02.5.058.662s.102.308.191.439c.103.15.239.264.414.34s.384.113.629.113a1.6 1.6 0 0 0 .63-.111.952.952 0 0 0 .416-.342c.09-.132.154-.281.192-.451s.057-.381.057-.633v-3.138h.687v3.085h-.001zm5.576 2.071h-.891l-1.725-2.051h-.966v2.051h-.687v-5.157h1.444c.312 0 .572.021.779.062.208.041.395.112.562.217.188.117.333.266.438.445.104.178.157.405.157.68 0 .373-.094.684-.28.935a1.702 1.702 0 0 1-.772.565l1.941 2.253zm-1.603-3.707a.933.933 0 0 0-.078-.393.693.693 0 0 0-.258-.289.951.951 0 0 0-.353-.14 2.589 2.589 0 0 0-.481-.04h-.807v1.946h.692c.218 0 .406-.019.568-.058a.899.899 0 0 0 .642-.547 1.29 1.29 0 0 0 .075-.479zm6.335 3.707h-.73l-.505-1.438h-2.23l-.506 1.438h-.696l1.877-5.157h.915l1.875 5.157zm-1.448-2.026l-.903-2.532-.908 2.532h1.811zm6.164 2.026h-.848l-2.445-4.613v4.613h-.641v-5.157h1.063l2.23 4.212v-4.212h.641v5.157zm5.355-.375c-.127.056-.242.107-.345.156a3.062 3.062 0 0 1-.403.152c-.141.044-.294.082-.459.113s-.347.047-.545.047c-.374 0-.714-.053-1.021-.158a2.09 2.09 0 0 1-.798-.494 2.25 2.25 0 0 1-.52-.836 3.399 3.399 0 0 1-.188-1.179c0-.425.061-.806.181-1.14a2.17 2.17 0 0 1 1.313-1.362 2.918 2.918 0 0 1 1.034-.177c.277 0 .553.033.83.101.275.067.582.185.919.354v.813h-.052a3.085 3.085 0 0 0-.846-.521 2.471 2.471 0 0 0-.896-.162c-.261 0-.496.041-.705.125a1.542 1.542 0 0 0-.559.394c-.16.173-.284.392-.373.657a2.872 2.872 0 0 0-.134.916c0 .361.05.674.147.936.098.26.225.473.379.637.162.17.351.297.566.379.215.082.443.123.684.123.33 0 .639-.057.928-.17s.56-.283.811-.51h.049l.003.806z"/><path fill="#FFF" d="M112.519 129.592h-3.397v-5.157h3.397v.61h-2.712v1.412h2.712v.609h-2.712v1.916h2.712v.61zm-79.642-2.515c0-.853.229-1.519.687-2 .457-.482 1.048-.724 1.771-.724.475 0 .9.112 1.281.339.379.227.669.542.869.946.2.405.299.864.299 1.378 0 .52-.104.984-.315 1.396-.21.409-.507.721-.893.932-.384.211-.8.316-1.245.316-.481 0-.915-.117-1.294-.35a2.27 2.27 0 0 1-.865-.956 2.868 2.868 0 0 1-.295-1.277zm.7.009c0 .617.167 1.104.499 1.461.333.355.75.533 1.251.533.512 0 .932-.181 1.262-.539s.495-.869.495-1.529c0-.417-.069-.782-.211-1.094a1.637 1.637 0 0 0-1.535-.982c-.479 0-.895.165-1.24.496-.347.331-.521.882-.521 1.654zm5.116 2.489v-5.131h3.46v.605h-2.781v1.589h2.407v.604h-2.407v2.332h-.679v.001z"/></svg>